<svg class="icon" viewBox="0 0 1024 1024" xmlns="http://www.w3.org/2000/svg" width="200" height="200"><defs><style/></defs><path d="M468.693 16.725a85.333 85.333 0 0 1 82.56 0l381.952 211.072a85.333 85.333 0 0 1 44.075 74.667v419.03a85.333 85.333 0 0 1-44.075 74.666l-381.952 211.115a85.333 85.333 0 0 1-82.56 0L86.741 796.203a85.333 85.333 0 0 1-44.074-74.71V302.507A85.333 85.333 0 0 1 86.74 227.84L468.693 16.683zm423.254 285.782L509.952 91.435 128 302.507v418.986l381.952 211.072 381.995-211.072V302.507zm-684.715 42.197a42.667 42.667 0 0 1 57.984-16.725l244.736 135.253 244.779-135.253a42.667 42.667 0 0 1 41.258 74.666L552.62 537.173v268.16a42.667 42.667 0 0 1-85.334 0v-268.16l-243.37-134.485a42.667 42.667 0 0 1-16.683-58.027z"/></svg>