<svg class="icon" viewBox="0 0 1024 1024" xmlns="http://www.w3.org/2000/svg" width="200" height="200"><defs><style/></defs><path d="M646 1024H100A100 100 0 0 1 0 924V258a100 100 0 0 1 100-100h546a100 100 0 0 1 100 100v31a40 40 0 1 1-80 0v-31a20 20 0 0 0-20-20H100a20 20 0 0 0-20 20v666a20 20 0 0 0 20 20h546a20 20 0 0 0 20-20V713a40 40 0 0 1 80 0v211a100 100 0 0 1-100 100z"/><path d="M924 866H806a40 40 0 0 1 0-80h118a20 20 0 0 0 20-20V100a20 20 0 0 0-20-20H378a20 20 0 0 0-20 20v8a40 40 0 0 1-80 0v-8A100 100 0 0 1 378 0h546a100 100 0 0 1 100 100v666a100 100 0 0 1-100 100z"/><path d="M469 887a40 40 0 0 1-27-10L152 618a40 40 0 0 1 1-60l290-248a40 40 0 0 1 66 30v128a367 367 0 0 0 241-128l94-111a40 40 0 0 1 70 35l-26 109a430 430 0 0 1-379 332v142a40 40 0 0 1-40 40zM240 589l189 169v-91a40 40 0 0 1 40-40c144 0 269-85 323-214a447 447 0 0 1-323 137 40 40 0 0 1-40-40v-83z"/></svg>