<svg xmlns="http://www.w3.org/2000/svg" width="200" height="200" class="icon" viewBox="0 0 1024 1024"><defs><style/></defs><path d="M877.297 553.797l-323.5 323.502c-54.37 54.37-126.657 84.311-203.548 84.312-76.89-.001-149.178-29.943-203.547-84.312S62.389 750.64 62.389 673.75s29.943-149.178 84.313-203.548l135.442-135.442c75.83-75.829 199.214-75.829 275.044 0s75.83 199.215 0 275.044L399.32 767.675c-17.62 17.62-46.189 17.62-63.81 0-17.62-17.622-17.62-46.19 0-63.81l157.868-157.868c40.646-40.645 40.646-106.78 0-147.424-40.644-40.646-106.779-40.646-147.424 0L210.51 534.013c-77.052 77.052-77.052 202.423 0 279.476 77.052 77.051 202.423 77.051 279.475 0l323.502-323.502c77.052-77.051 77.052-202.424 0-279.476-77.053-77.051-202.424-77.05-279.476 0-17.62 17.62-46.19 17.62-63.81 0s-17.619-46.19 0-63.809C524.573 92.332 596.86 62.39 673.75 62.39c76.893 0 149.179 29.943 203.55 84.312 54.369 54.37 84.31 126.657 84.31 203.548 0 76.89-29.942 149.177-84.312 203.547z"/></svg>