<svg xmlns="http://www.w3.org/2000/svg" width="200" height="200" class="icon" viewBox="0 0 1024 1024"><defs><style/></defs><path d="M511.472 957.56c-51.014 0-93.476-37.32-101.503-86.073H210.173c-32.96 0-59.794-26.834-59.794-59.827 0-12.417 3.735-24.278 10.812-34.336l83.646-111.562h533.236l83.515 111.365c7.307 10.484 11.009 22.247 11.009 34.533 0 32.994-26.834 59.827-59.795 59.827h-199.86c-8.027 48.755-50.456 86.072-101.47 86.072zM261.613 699.312l-73.293 97.735c-2.752 3.964-4.39 9.174-4.39 14.612 0 14.482 11.762 26.277 26.243 26.277h231.97v16.774c0 38.203 31.094 69.297 69.329 69.297 38.203 0 69.296-31.094 69.296-69.297v-16.774h232.035c14.482 0 26.244-11.795 26.244-26.277 0-5.373-1.606-10.517-4.652-14.875l-73.097-97.473H261.613zm524.848-86.072H236.45V424.29c0-112.349 68.674-213.393 172.143-255.102v-3.113c0-56.715 46.164-102.88 102.879-102.88s102.847 46.165 102.847 102.88v3.113C717.787 210.897 786.46 311.941 786.46 424.29V613.24zm-516.46-33.55h482.91V424.29c0-102.16-64.677-193.67-160.97-227.678l-11.173-3.964v-26.572c0-38.235-31.093-69.329-69.296-69.329-38.235 0-69.329 31.094-69.329 69.33v26.57l-11.173 3.965C334.676 230.621 270 322.131 270 424.29v155.4z"/></svg>