<svg xmlns="http://www.w3.org/2000/svg" width="200" height="200" class="icon" viewBox="0 0 1024 1024"><defs><style/></defs><path d="M234.272 32h58.368v180h-58.369V32zM584 32h58.272v180H584V32zM176 332h524.592v60H176v-60zm0 180h291.408v60H176v-60zm352.56 384H32V80h768v381.648C911.169 492.992 992 597.104 992 722c0 150-116.592 270-262.272 270a258.384 258.384 0 0 1-201.12-96zm212.352-443.76V138.32H91.088v699.36h401.28A277.728 277.728 0 0 1 467.409 722c0-150 116.592-270 262.32-270 3.744 0 7.488.096 11.184.24zM176 692h233.136v60H176v-60zm553.728-180c-110.736 0-204 96-204 210s93.264 210 204 210 204-96 204-210-93.264-210-204-210zM704 560h59.76v204H704V560zm59.76 240v59.76H704V800h59.76z"/></svg>