<svg xmlns="http://www.w3.org/2000/svg" width="200" height="200" class="icon" viewBox="0 0 1024 1024"><defs><style/></defs><path d="M449.981 243.901c-57.753-10.624-121-7.982-167.66 6.836-86.4 27.453-135.362 79.247-162.56 155.791-32.224 90.696-2.933 190.628 15.811 248.637 18.745 58.01 76.058 144.978 135.942 155.853 63.77 11.582 121.308-9.897 155.376-50.739 16.057-19.246 30.275-46.75 31.708-74.46.932-18.023-1.223-31.647-6.17-45.148-5.641-15.401-15.067-29.645-32.952-46.577-19.19-18.17-62.53-34.094-104.284-28.293-30.904 4.29-56.555 15.677-78.438 32.476-33.587 25.79-65.413 82.657-65.413 82.657s-1.152-33.26 13.27-66.698c7.23-16.752 24.398-44.851 41.263-58.998 17.121-14.366 37.857-31.539 72.166-40.32 38.887-9.953 78.275-6.978 93.63-3.558 46.397 10.322 82.242 34.647 111.616 65.321 59.525 62.167 82.468 161.536 51.753 246.036-10.281 28.283-38.85 61.062-69.31 85.11-18.324 14.464-57 35.405-103.188 45.143-30.592 6.451-64.481 6.298-97.936 2.227-83.957-10.224-159.503-86.533-195.113-147.778C53.878 746.173.456 621.363 13.686 486.809c6.302-64.122 28.088-132.47 62.884-182.476 38.205-54.938 90.547-89.18 118.236-105.2 52.9-30.608 132.29-43.623 185.195-40.833 33.628 1.777 86.856 12.667 137.273 38.088 39.664 20.004 75.78 55.245 92.175 95.375 9.815 24.023 6.712 47.493 6.671 47.493-.046.118 1.137-2.544-31.442-34.053-27.514-26.608-76.948-50.672-134.697-61.302zM559.073 155.182s37.863-68.506 72.361-88.51c34.499-20.003 61.655-7.674 79.463 5.93 17.812 13.603 26.823 30.914 22.912 55.552-3.912 24.637-43.147 71.762-66.33 106.23-36.137-26.4-72.269-52.798-108.406-79.202zM408.264 117.033s6.81-62.653 26.311-88.049C454.077 3.59 478.234 4.572 495.805 9.34c17.572 4.767 29.732 14.97 34.54 34.56 4.803 19.594-9.733 66.688-16.246 99.461-35.282-8.77-70.559-17.551-105.835-26.327zM294.764 125.061s-11.659-45.609-4.66-68.342c7.004-22.727 24.177-28.16 37.735-29.27 13.557-1.112 24.755 2.948 33.254 15.457 8.5 12.503 10.665 49.172 14.7 73.784l-81.03 8.371zM185.165 163.123s-20.9-34.672-20.793-55.02c.108-20.351 12.867-28.932 23.732-33.1 10.86-4.168 21.063-3.518 31.155 4.72 10.091 8.233 20.971 37.837 30.397 57.083-21.499 8.771-42.992 17.547-64.491 26.317zM97.408 227.149s-26.778-25.185-31.724-42.931c-4.94-17.746 4.045-28.268 12.473-34.494 8.422-6.226 17.47-8.095 28.293-3.343 10.818 4.756 27.622 27.93 40.591 42.43-16.542 12.779-33.085 25.558-49.633 38.338zM762.081 537.687c38.155 4.096 77.287 17.52 103.757 35.497 49.014 33.28 70.047 74.844 72.832 127.857 3.302 62.812-33.654 119.966-56.192 152.816-22.538 32.85-74.634 76.662-114.17 72.33-42.103-4.618-74.154-28.784-87.89-60.712-6.478-15.048-10.266-34.93-6.006-52.552 2.77-11.464 6.656-19.6 12.272-27.136 6.405-8.597 14.96-15.765 29.312-23.045 15.406-7.813 45.522-9.718 70.595 1.69 18.56 8.442 32.512 20.351 43.09 34.948 16.24 22.41 25.595 63.96 25.595 63.96s6.917-20.619 4.1-44.253c-1.407-11.837-6.932-32.64-14.863-44.64-8.053-12.187-17.843-26.81-37.703-38.698-22.508-13.47-47.734-18.944-57.99-19.66-30.986-2.172-57.973 6.394-82.078 20.141-48.86 27.863-81.73 85.842-78.224 144.497 1.173 19.63 12.97 45.486 27.577 66.217 8.786 12.472 29.117 32.788 56.238 47.493 17.966 9.738 39.224 15.949 60.938 19.625 54.497 9.226 116.03-24.514 149.745-56.253 33.71-31.74 90.414-99.984 107.177-186.737 7.987-41.339 7.06-88.218-5.422-126.024-13.712-41.523-40.126-72.714-54.493-87.905-27.443-29.02-74.752-51.958-108.416-60.058-21.391-5.145-56.77-8.233-93.086-1.694-28.575 5.14-57.759 20.5-75.5 42.588-10.619 13.225-13.046 28.503-13.046 28.503s-.215-1.797 26.066-15.473c22.18-11.545 57.626-17.418 95.785-13.322z"/><path d="M710.257 461.798s-10.967-49.966-28.857-68.92c-17.884-18.949-37.191-16.282-50.882-11.08-13.691 5.207-22.559 14.372-24.694 30.536-2.135 16.164 13.665 52.987 21.775 78.9 27.551-9.81 55.107-19.626 82.658-29.436zM811.832 465.976s7.399-40.514-.092-60.057c-7.49-19.543-22.804-23.424-34.703-23.711-11.9-.287-21.417 3.845-28.073 15.222-6.656 11.376-6.318 43.586-8.34 65.331 23.74 1.075 47.477 2.145 71.208 3.215zM881.439 492.134s15.795-26.403 15.641-41.943c-.153-15.544-9.907-22.144-18.191-25.364-8.29-3.22-16.056-2.76-23.71 3.492-7.65 6.251-15.837 28.82-22.943 43.484 16.404 6.779 32.803 13.553 49.203 20.331zM943.012 536.381s19.548-17.827 23.27-30.597c3.722-12.769-2.672-20.52-8.704-25.154-6.031-4.634-12.539-6.124-20.393-2.842-7.854 3.277-20.183 19.8-29.67 30.1l35.497 28.493zM986.071 592.824s21.463-10.793 27.863-20.992c6.4-10.194 2.729-18.462-1.393-23.93-4.116-5.469-9.436-8.326-17.1-7.363-7.665.962-22.508 12.354-33.332 19.02 7.988 11.096 15.975 22.18 23.962 33.265z"/></svg>