<svg class="icon" viewBox="0 0 1024 1024" xmlns="http://www.w3.org/2000/svg" width="200" height="200"><defs><style/></defs><path d="M870.4 793.6H153.6C68.902 793.6 0 724.698 0 640V153.6C0 68.902 68.902 0 153.6 0h716.8C955.098 0 1024 68.902 1024 153.6V640c0 84.698-68.902 153.6-153.6 153.6zM153.6 51.2c-56.46 0-102.4 45.94-102.4 102.4V640c0 56.46 45.94 102.4 102.4 102.4h716.8c56.46 0 102.4-45.94 102.4-102.4V153.6c0-56.46-45.94-102.4-102.4-102.4H153.6zm640 972.8H230.4a25.6 25.6 0 0 1 0-51.2h563.2a25.6 25.6 0 0 1 0 51.2zm-160-115.2H390.4a25.6 25.6 0 0 1 0-51.2h243.2a25.6 25.6 0 0 1 0 51.2z"/><path d="M349.069 404.3a25.664 25.664 0 0 1-18.112-7.5l-54.298-54.31a25.6 25.6 0 0 1 36.211-36.212l44.263 44.276 88.269-20.365 20.364-88.256-44.275-44.275a25.6 25.6 0 1 1 36.199-36.199L512 215.782c6.246 6.234 8.82 15.258 6.848 23.86l-27.162 117.67a25.6 25.6 0 0 1-19.187 19.187l-117.683 27.149a25.78 25.78 0 0 1-5.747.653zm235.34 235.329a25.498 25.498 0 0 1-18.099-7.501L512 577.83a25.562 25.562 0 0 1-6.848-23.846l27.149-117.683a25.626 25.626 0 0 1 19.2-19.187l117.67-27.15a25.536 25.536 0 0 1 23.847 6.849l54.297 54.31a25.6 25.6 0 0 1-36.198 36.211l-44.275-44.275-88.256 20.365-20.365 88.256 44.275 44.275a25.6 25.6 0 0 1-18.086 43.674z"/><path d="M557.248 467.648a25.498 25.498 0 0 1-18.1-7.5l-90.495-90.497a25.6 25.6 0 1 1 36.198-36.198l90.496 90.496a25.6 25.6 0 0 1-18.099 43.699z"/></svg>