<svg xmlns="http://www.w3.org/2000/svg" width="200" height="200" class="icon" viewBox="0 0 1024 1024"><defs><style/></defs><path d="M756.081 1012.218H291.154c-68.473 0-123.982-55.975-123.982-125.054V136.836c0-69.078 55.512-125.054 123.982-125.054h464.928c68.474 0 123.984 55.975 123.984 125.054v750.328c0 69.078-55.511 125.054-123.985 125.054zm61.981-875.382c0-34.516-27.751-62.526-61.98-62.526H291.154c-34.228 0-61.991 28.01-61.991 62.526v31.268h588.899v-31.268zm0 93.794H229.163v499.242h588.899V230.63zm0 561.768H229.163v94.766c0 34.54 27.765 62.526 61.991 62.526h464.928c34.229 0 61.98-27.986 61.98-62.526v-94.766zM523.623 918.429c-25.668 0-46.482-20.993-46.482-46.896 0-25.903 20.816-46.895 46.482-46.895 25.664 0 46.477 20.993 46.477 46.895s-20.813 46.896-46.477 46.896z"/><path d="M756.081 1017.218H291.154c-71.121 0-128.982-58.342-128.982-130.054V136.836c0-71.712 57.861-130.054 128.982-130.054h464.928c71.122 0 128.984 58.342 128.984 130.054v750.328c0 71.712-57.862 130.054-128.985 130.054zM291.154 16.783c-65.607 0-118.982 53.856-118.982 120.054v750.328c0 66.198 53.375 120.054 118.982 120.054h464.927c65.608 0 118.985-53.855 118.985-120.054V136.836c0-66.198-53.376-120.054-118.984-120.054H291.154zM756.082 954.69H291.154c-36.939 0-66.991-30.292-66.991-67.526v-99.766h598.899l.001 99.766c0 37.234-30.047 67.526-66.981 67.526zM234.163 797.398v89.766c0 31.72 25.566 57.526 56.991 57.526h464.928c31.419 0 56.98-25.807 56.98-57.526v-89.766H234.163zm289.46 126.031c-28.387 0-51.482-23.28-51.482-51.896s23.096-51.895 51.482-51.895c28.385 0 51.477 23.279 51.477 51.895s-23.092 51.896-51.477 51.896zm0-93.79c-22.873 0-41.482 18.794-41.482 41.895 0 23.102 18.609 41.896 41.482 41.896 22.871 0 41.477-18.794 41.477-41.896 0-23.101-18.606-41.895-41.477-41.895zm299.439-94.767H224.163V225.63h598.899v509.242zm-588.899-10h578.899V235.63H234.163v489.242zm588.899-551.768H224.163v-36.268c0-37.234 30.052-67.526 66.991-67.526h464.927c36.934 0 66.98 30.292 66.98 67.526v36.268zm-588.899-10h578.899v-26.268c0-31.72-25.562-57.526-56.98-57.526H291.154c-31.425 0-56.991 25.806-56.991 57.526v26.268z"/></svg>