<svg xmlns="http://www.w3.org/2000/svg" width="200" height="200" class="icon" viewBox="0 0 1024 1024"><defs><style/></defs><path d="M896 716.8c-44.8 0-76.8 25.6-96 57.6l-339.2-160L608 371.2c25.6 12.8 51.2 25.6 83.2 25.6 83.2 0 153.6-70.4 153.6-153.6S774.4 89.6 691.2 89.6s-153.6 64-153.6 147.2c0 19.2 6.4 38.4 12.8 57.6L300.8 403.2c-25.6-44.8-76.8-76.8-134.4-76.8-83.2 0-153.6 70.4-153.6 153.6 0 83.2 70.4 153.6 153.6 153.6 12.8 0 19.2 0 32-6.4l57.6 128c-12.8 12.8-19.2 25.6-19.2 44.8 0 38.4 32 64 64 64 38.4 0 64-32 64-64 0-12.8-6.4-19.2-6.4-32l70.4-121.6 352 166.4v6.4c0 64 51.2 115.2 115.2 115.2s115.2-51.2 115.2-115.2S960 716.8 896 716.8zM691.2 134.4c57.6 0 108.8 44.8 108.8 108.8S755.2 352 691.2 352s-108.8-57.6-108.8-115.2 51.2-102.4 108.8-102.4zM569.6 332.8L416 588.8 307.2 544c6.4-19.2 12.8-44.8 12.8-64v-32l249.6-115.2zM64 480c0-57.6 44.8-108.8 108.8-108.8S281.6 416 281.6 480c0 57.6-44.8 108.8-108.8 108.8S64 537.6 64 480zm262.4 262.4c-6.4 0-12.8-6.4-19.2-6.4h-6.4l-57.6-128c12.8-6.4 25.6-12.8 38.4-25.6l108.8 51.2-64 108.8zM896 889.6c-38.4 0-64-32-64-64 0-38.4 32-64 64-64s64 32 64 64c0 38.4-25.6 64-64 64z"/></svg>