<svg xmlns="http://www.w3.org/2000/svg" width="200.586" height="200" class="icon" viewBox="0 0 1027 1024"><defs><style/></defs><path d="M512 750.933c-112.64 0-211.627-119.466-245.76-242.346-34.133 0-61.44-44.374-61.44-102.4 0-17.067 3.413-34.134 6.827-47.787-3.414-20.48-6.827-47.787-6.827-68.267C204.8 129.707 341.333 0 508.587 0S819.2 133.12 819.2 290.133c0 20.48-3.413 47.787-6.827 68.267 3.414 13.653 6.827 30.72 6.827 47.787 0 58.026-27.307 102.4-61.44 102.4C723.627 631.467 624.64 750.933 512 750.933zM276.48 471.04h6.827c3.413 3.413 10.24 6.827 10.24 10.24C324.267 610.987 423.253 716.8 512 716.8s187.733-105.813 218.453-235.52c0-6.827 6.827-10.24 10.24-10.24 3.414-3.413 10.24 0 17.067 0h3.413c10.24 0 27.307-27.307 27.307-68.267 0-13.653-3.413-30.72-6.827-40.96v-10.24c0-13.653 3.414-40.96 3.414-61.44 0-139.946-126.294-256-276.48-256-150.187 0-269.654 116.054-269.654 256 0 20.48 3.414 47.787 6.827 64.854v10.24c-3.413 10.24-6.827 23.893-6.827 40.96 0 40.96 17.067 68.266 27.307 68.266h3.413c0-3.413 3.414-3.413 6.827-3.413z"/><path d="M1006.933 1024H17.067C6.827 1024 0 1017.173 0 1006.933v-40.96C0 849.92 75.093 747.52 184.32 706.56l112.64-30.72c6.827 0 13.653 0 17.067 3.413 51.2 58.027 122.88 136.534 197.973 136.534s143.36-78.507 197.973-136.534c3.414-3.413 10.24-6.826 17.067-3.413l109.227 30.72c112.64 37.547 191.146 150.187 191.146 266.24v30.72c-3.413 13.653-10.24 20.48-20.48 20.48zm-972.8-34.133h955.734v-13.654c0-98.986-71.68-201.386-167.254-235.52l-98.986-27.306c-54.614 61.44-129.707 139.946-215.04 139.946s-160.427-78.506-215.04-139.946l-98.987 27.306c-95.573 34.134-160.427 122.88-160.427 225.28v23.894zm750.934-614.4h-51.2c-6.827 0-13.654-6.827-17.067-13.654 0-3.413-23.893-109.226-30.72-184.32-3.413-30.72-30.72-58.026-61.44-58.026-23.893 0-40.96 13.653-58.027 30.72-17.066 13.653-34.133 20.48-54.613 20.48-27.307 0-47.787 0-64.853-20.48s-34.134-30.72-47.787-30.72c-40.96 0-71.68 30.72-75.093 68.266L307.2 358.4c0 3.413-3.413 10.24-6.827 10.24s-6.826 6.827-13.653 6.827c0 0-23.893-3.414-51.2-3.414-10.24 0-17.067-6.826-17.067-17.066s10.24-17.067 20.48-17.067c13.654 0 27.307 0 37.547 3.413l17.067-153.6c3.413-58.026 54.613-102.4 109.226-102.4 27.307 0 54.614 23.894 71.68 44.374 6.827 6.826 17.067 6.826 37.547 6.826 10.24 0 20.48-3.413 30.72-13.653 20.48-17.067 47.787-37.547 81.92-37.547 51.2 0 92.16 37.547 95.573 88.747 3.414 58.027 20.48 136.533 27.307 167.253h37.547c10.24 0 17.066 6.827 17.066 17.067s-6.826 17.067-17.066 17.067z"/><path d="M324.267 426.667c-3.414 0-10.24 0-13.654-3.414l-51.2-51.2c-6.826-6.826-6.826-17.066 0-23.893s17.067-6.827 23.894 0l51.2 51.2c6.826 6.827 6.826 17.067 0 23.893 0 3.414-6.827 3.414-10.24 3.414zm375.466 0c-3.413 0-6.826 0-10.24-3.414-6.826-6.826-10.24-17.066-3.413-23.893l34.133-51.2c6.827-6.827 17.067-10.24 23.894-3.413s10.24 17.066 3.413 23.893l-34.133 51.2c-3.414 3.413-6.827 6.827-13.654 6.827zm-136.533 0c-3.413 0-6.827 0-10.24-3.414 0 0-20.48-13.653-40.96-13.653s-40.96 13.653-40.96 13.653c-6.827 6.827-17.067 3.414-23.893-3.413-6.827-6.827-3.414-17.067 3.413-23.893 0 0 27.307-20.48 61.44-20.48s61.44 20.48 61.44 20.48c6.827 6.826 10.24 17.066 3.413 23.893-3.413 3.413-6.826 6.827-13.653 6.827zM631.467 614.4c-27.307 0-51.2-20.48-71.68-37.547-17.067-17.066-34.134-30.72-54.614-30.72-17.066 0-30.72 13.654-47.786 30.72C440.32 593.92 419.84 614.4 389.12 614.4c-44.373 0-58.027-13.653-81.92-37.547l-17.067-17.066c-6.826-6.827-6.826-17.067 0-23.894s17.067-6.826 23.894 0l17.066 17.067c23.894 23.893 27.307 27.307 54.614 27.307 13.653 0 27.306-13.654 44.373-27.307 20.48-20.48 40.96-40.96 71.68-40.96 30.72 0 54.613 20.48 75.093 40.96 17.067 13.653 34.134 27.307 47.787 27.307 30.72 0 34.133-3.414 54.613-27.307 3.414-6.827 10.24-10.24 17.067-17.067s17.067-6.826 23.893 0 6.827 17.067 0 23.894c-6.826 6.826-10.24 13.653-17.066 17.066-13.654 23.894-27.307 37.547-71.68 37.547zm-102.4 34.133h-34.134c-10.24 0-17.066-6.826-17.066-17.066s6.826-17.067 17.066-17.067h34.134c10.24 0 17.066 6.827 17.066 17.067s-6.826 17.066-17.066 17.066z"/><path d="M631.467 512c-47.787 0-85.334-37.547-85.334-85.333s37.547-85.334 85.334-85.334S716.8 378.88 716.8 426.667 679.253 512 631.467 512zm0-136.533c-27.307 0-51.2 23.893-51.2 51.2s23.893 51.2 51.2 51.2 51.2-23.894 51.2-51.2-23.894-51.2-51.2-51.2zM392.533 512c-47.786 0-85.333-37.547-85.333-85.333s37.547-85.334 85.333-85.334 85.334 37.547 85.334 85.334S440.32 512 392.533 512zm0-136.533c-27.306 0-51.2 23.893-51.2 51.2s23.894 51.2 51.2 51.2 51.2-23.894 51.2-51.2-23.893-51.2-51.2-51.2z"/></svg>