<svg class="icon" viewBox="0 0 1024 1024" xmlns="http://www.w3.org/2000/svg" width="200" height="200"><defs><style/></defs><path d="M981.918 277.742H813.589V122.038c0-19.638-15.43-35.068-35.068-35.068H252.493c-19.638 0-35.068 15.43-35.068 35.068v155.704H42.082c-19.638 0-35.068 15.43-35.068 35.069v598.97c0 19.638 15.43 35.068 35.068 35.068h939.836c19.638 0 35.068-15.43 35.068-35.068V312.81c0-19.638-15.43-35.069-35.068-35.069zM287.562 157.107h455.89v120.635h-455.89V157.107zm-35.069 190.772H946.85v133.26h-74.345v-50.498c0-19.638-15.43-35.068-35.068-35.068h-117.83c-19.639 0-35.069 15.43-35.069 35.068v50.499H347.879V430.64c0-19.638-15.43-35.068-35.068-35.068h-117.83c-19.639 0-35.069 15.43-35.069 35.068v50.499H77.151V347.88h175.342zm549.874 119.233v140.274h-47.693V467.112h47.693zm-526.027 0v140.274h-47.693V467.112h47.693zm-199.19 409.6V551.277h81.36v89.775c0 19.638 15.43 35.069 35.068 35.069h117.83c19.639 0 35.069-15.43 35.069-35.069v-89.775h336.657v89.775c0 19.638 15.43 35.069 35.069 35.069h117.83c19.638 0 35.068-15.43 35.068-35.069v-89.775h74.346V875.31H77.15z"/></svg>