<svg xmlns="http://www.w3.org/2000/svg" width="200.781" height="200" class="icon" viewBox="0 0 1028 1024"><defs><style/></defs><path d="M20.747 180.675c-27.095 27.136-21.32 65.351.266 86.876.86.84 87.49 83.579 209.306 205.414 3.133 3.134 7.23 4.67 11.325 4.67s8.192-1.577 11.326-4.67c6.246-6.246 6.246-16.384 0-22.63-18.371-18.37-35.84-35.738-52.409-52.183l50.852-50.852c6.246-6.247 6.246-16.384 0-22.63s-16.384-6.247-22.63 0l-50.975 50.974a15711.451 15711.451 0 0 0-74.076-72.663l115.67-115.67c6.247-6.247 6.247-16.385 0-22.631s-16.383-6.247-22.63 0L80.732 280.72c-23.551-22.815-37.13-35.78-37.334-36.004-6.759-6.759-15.627-25.764 0-41.37l160.01-160.01c6.185-6.267 22.63-18.719 40.673-.779.799.902 81.593 92.672 204.923 216.003 6.247 6.246 16.384 6.246 22.63 0s6.247-16.384 0-22.63C349.083 113.398 268.884 22.323 267.409 20.664c-29.819-29.757-65.802-20.828-86.63 0L20.747 180.674zm678.646 591.994c-6.247-6.246-16.384-6.246-22.63 0l-50.914 50.873c-15.524-15.708-31.806-32.154-48.968-49.316-6.246-6.246-16.384-6.246-22.63 0s-6.247 16.384 0 22.63c118.538 118.498 201.318 207.012 202.506 208.282 10.977 11.018 26.01 17.06 42.332 17.06 16.794 0 33.792-6.554 44.319-17.122l159.928-161.832c20.132-20.132 21.279-54.272 2.499-73.114L791.245 555.56c-6.246-6.246-16.384-6.246-22.63 0s-6.246 16.384 0 22.63l214.59 214.57c6.41 6.41 5.18 20.234-2.52 27.934L820.716 982.528c-3.686 3.707-12.042 7.68-21.627 7.68-5.509 0-13.373-1.352-19.333-7.332-.328-.348-13.721-14.664-36.987-39.014l116.613-116.613c6.247-6.247 6.247-16.384 0-22.63s-16.384-6.247-22.63 0L720.63 920.738a10301.94 10301.94 0 0 0-72.315-74.423l51.078-51.078c6.246-6.205 6.246-16.322 0-22.589zM4.609 1018.532a15.992 15.992 0 0 0 16.015 4.116l320-95.334a15.834 15.834 0 0 0 6.779-4.055L894.28 372.695c.779-.778 1.147-1.761 1.72-2.621l116.982-117.003c9.4-9.44 14.623-21.954 14.623-35.287 0-13.312-5.222-25.825-14.623-35.205L845.456 15.094c-18.821-18.821-51.671-18.821-70.492 0L655.32 134.738c-.779.758-1.188 1.761-1.762 2.662L105.841 685.138a15.82 15.82 0 0 0-3.911 6.37L.8 1002.393c-1.864 5.673-.41 11.837 3.747 16.138zm662.978-849.859l33.24 33.24-496.743 498.073-55.255-12.534 518.758-518.779zM224.072 725.32l499.426-500.736 77.946 77.947-503.93 497.48h-73.442V725.32zm636.293-363.848L340.563 884.797l-18.473-64.061 501.985-495.575 36.29 36.311zM127.837 715.489l64.225 14.582v85.914c0 8.827 7.168 15.995 15.995 15.995h83.968l20.296 70.41-271.606 80.937 87.142-267.838zm669.84-677.765c6.758-6.758 18.493-6.758 25.251 0l167.526 167.527a17.738 17.738 0 0 1 5.223 12.615c0 4.731-1.864 9.257-5.243 12.636l-107.868 107.91-192.738-192.738 107.869-107.93z"/></svg>