<svg xmlns="http://www.w3.org/2000/svg" width="200" height="200" class="icon" viewBox="0 0 1024 1024"><defs><style/></defs><path d="M512 256s-97.2-4.8-144-96c16.8 113.6 108 192 144 192s127.2-78.8 144-192c-46.8 91.2-144 96-144 96z"/><path d="M928 448c0-229.6-186.4-416-416-416S96 218.4 96 448c0 186.8 122.8 344.4 292.4 397.2-42 35.2-68.4 88-68.4 146.8h64c0-70.8 57.2-128 128-128s128 57.2 128 128h64c0-58.8-26.4-111.6-68.4-146.8C805.2 792.4 928 634.8 928 448zM512 800c-194.4 0-352-157.6-352-352S317.6 96 512 96s352 157.6 352 352-157.6 352-352 352z"/></svg>