<svg xmlns="http://www.w3.org/2000/svg" width="200" height="200" class="icon" viewBox="0 0 1024 1024"><defs><style/></defs><path d="M320 128C320 57.344 262.656 0 192 0S64 57.344 64 128s57.344 128 128 128 128-57.344 128-128zm224 64c52.992 0 96-43.008 96-96S596.992 0 544 0s-96 43.008-96 96 43.008 96 96 96zM864 64c-52.992 0-96 43.008-96 96s43.008 96 96 96 96-43.008 96-96-43.008-96-96-96zM537.088 257.216c-77.056-1.216-164.736 10.688-234.944 72.896-70.272 62.208-61.504 217.6 37.824 259.392 99.392 41.728 121.28 113.92 94.656 203.776C408 883.136 453.44 960 567.04 960 762.88 960 832 776.512 832 570.944c0-223.552-87.872-310.592-294.912-313.728z"/></svg>