<svg xmlns="http://www.w3.org/2000/svg" width="200" height="200" class="icon" viewBox="0 0 1024 1024"><defs><style/></defs><path d="M1024 659.2c0-147.2-147.2-262.4-307.2-262.4-172.8 0-307.2 115.2-307.2 262.4S544 921.6 716.8 921.6c38.4 0 70.4-6.4 108.8-19.2L928 953.6l-32-83.2c76.8-57.6 128-128 128-211.2zm-409.6-44.8c-19.2 0-38.4-19.2-38.4-38.4s19.2-38.4 38.4-38.4c25.6 0 44.8 19.2 44.8 38.4s-12.8 38.4-44.8 38.4zm198.4 0c-19.2 0-38.4-19.2-38.4-38.4s19.2-38.4 38.4-38.4c25.6 0 44.8 19.2 44.8 38.4 6.4 19.2-12.8 38.4-44.8 38.4z"/><path d="M364.8 128C166.4 128 0 262.4 0 435.2c0 102.4 51.2 179.2 147.2 243.2l-38.4 108.8 128-64c44.8 6.4 83.2 19.2 128 19.2h32c-6.4-25.6-12.8-51.2-12.8-76.8 0-160 134.4-288 307.2-288h32C697.6 236.8 537.6 128 364.8 128zM243.2 371.2c-25.6 0-51.2-19.2-51.2-44.8 0-25.6 25.6-44.8 57.6-44.8s44.8 19.2 44.8 44.8c-6.4 25.6-25.6 44.8-51.2 44.8zm256 0c-25.6 0-57.6-19.2-57.6-44.8 0-25.6 25.6-44.8 57.6-44.8 25.6 0 44.8 19.2 44.8 44.8 0 25.6-19.2 44.8-44.8 44.8z"/></svg>